<svg viewBox="0 0 328.15 144" xmlns="http://www.w3.org/2000/svg" xmlns:xlink="http://www.w3.org/1999/xlink"><linearGradient id="a" gradientUnits="userSpaceOnUse" x1="72.86" x2="78.06" y1="56.09" y2="85.58"><stop offset="0" stop-color="#ff8284"/><stop offset=".09" stop-color="#fe8e90"/><stop offset=".51" stop-color="#f7c4c5"/><stop offset=".83" stop-color="#f3e5e6"/><stop offset="1" stop-color="#f2f2f2"/></linearGradient><linearGradient id="b" x1="297.16" x2="302.63" xlink:href="#a" y1="54.55" y2="85.58"/><linearGradient id="c" x1="187.82" x2="191.05" xlink:href="#a" y1="66.95" y2="85.28"/><path d="m0 0h328v144h-328z" fill="#f2f2f2"/><path d="m58.75 139.5h-6.43v4.5h-.67v-4.5h-6.4v-.67h13.5zm-.75-2.67h-11.66v-6.33h11.48v.62h-10.82v5.09h11z"/><path d="m170.21 136.93v.64h-12.42v-.64z"/><path d="m282.75 137.22v.62h-6.41v1.54h-.68v-1.54h-6.41v-.62zm-6.69 4.06 6 2.13-.2.57-6.2-2.22a6.34 6.34 0 0 1 -2.49 1.53 9.5 9.5 0 0 1 -3.17.53v-.62a8.78 8.78 0 0 0 2.65-.41 6.2 6.2 0 0 0 2.2-1.18 3.35 3.35 0 0 0 1.15-1.83l.69.09a4 4 0 0 1 -.63 1.41zm-4.26-6.13c-1.13-.45-1.69-1.11-1.69-2s.56-1.54 1.69-2a13.5 13.5 0 0 1 8.4 0c1.13.45 1.69 1.11 1.69 2s-.56 1.53-1.69 2a13.5 13.5 0 0 1 -8.4 0zm.52-3.49c-1 .34-1.52.85-1.52 1.51s.51 1.16 1.52 1.51a13.28 13.28 0 0 0 7.36 0c1-.35 1.52-.85 1.52-1.51s-.51-1.17-1.52-1.51a13.28 13.28 0 0 0 -7.36 0z"/><path d="m64.34 60.36c-2.67-2.65-6-4.13-6.77 4-1.27 14.08 14.21 19.84 14.21 19.84 10.41 1.93 19.09-.73 22.82-3.36-3.18-.83-10.24-5.1-16.31-9a86 86 0 0 1 -13.95-11.48z" fill="url(#a)"/><g fill="#828282"><path d="m43 64.91a4.32 4.32 0 0 1 -2.24-.51 3.17 3.17 0 0 1 -1.39-2.63 8.31 8.31 0 0 1 1.09-3.66 11.54 11.54 0 0 0 1.34-4.61c0-1.54-3.38-2.35-5.62-2.88a4.81 4.81 0 0 1 -3-7.16c2.55-4.24 6.28-10.59 9.57-16.76l.88.47c-3.3 6.19-7 12.55-9.6 16.8a3.81 3.81 0 0 0 2.38 5.67c2.85.68 6.39 1.53 6.39 3.86a12.32 12.32 0 0 1 -1.48 5 7.72 7.72 0 0 0 -1 3.16 2.09 2.09 0 0 0 .91 1.85c1.05.63 3.72.76 10.48-2.19l1.11-.44a68.34 68.34 0 0 0 9.61-4.88c10.48-6.25 30.72-1.59 31.57-1.39l-.23 1c-.2 0-20.7-4.76-30.83 1.29a67.82 67.82 0 0 1 -9.75 5l-1.1.43c-4.02 1.67-7.09 2.58-9.09 2.58z"/><path d="m85.29 107.31a27.49 27.49 0 0 0 -5.57-4.59c-7.64-5-18.83-3.51-26.24-2.5-1.5.2-2.92.39-4.11.5a4.36 4.36 0 0 1 -3.49-1.13c-3-2.8-3-10-3-13.4 0-.65 0-1.15 0-1.42a24.79 24.79 0 0 0 -1.63-5.29c-.46-1.22-.89-2.37-1.18-3.34a1.39 1.39 0 0 1 .27-1.35c1.29-1.5 6.36-.92 7.5-.78.82-.06 6-.36 7.61 1.4.08.11 5.92 7.46 13.95 8.25-4.29-2.24-13.36-8.31-12.36-19.29.34-3.79 1.26-5.9 2.81-6.46 1.31-.48 2.93.23 4.8 2.09a84.86 84.86 0 0 0 13.91 11.38c11.16 7.23 15.28 8.94 16.76 9.1l-.11 1c-2.31-.25-8.1-3.36-17.2-9.25a86.24 86.24 0 0 1 -14.01-11.52c-1.09-1.08-2.63-2.28-3.76-1.86-.78.28-1.78 1.48-2.16 5.61-1.24 13.54 13.72 19.21 13.92 19.27l2.19.81-2.33.15c-9.73.65-16.79-8.26-17.09-8.64-1.08-1.19-5.29-1.15-6.82-1h-.1c-2.34-.31-6-.38-6.66.43a.41.41 0 0 0 -.07.42c.28.93.71 2.07 1.16 3.27a24.7 24.7 0 0 1 1.68 5.56v1.51c0 3-.08 10.16 2.63 12.65a3.32 3.32 0 0 0 2.72.87c1.16-.1 2.51-.28 4.07-.5 7.55-1 19-2.56 26.92 2.66a28.92 28.92 0 0 1 5.7 4.72z"/><path d="m43.68 52h-.09c-.87-.05-1.88-.85-2.11-2.94l-.08-.73.72.2c.76.22 3.22 1 2.9 2.43a1.35 1.35 0 0 1 -1.34 1.04zm-1-2.24c.23.83.65 1.22 1 1.24a.34.34 0 0 0 .4-.26c.01-.18-.6-.61-1.45-.96z"/></g><path d="m28.43 91.29-8.63-13.05 20.38-13.49 2.39 3.61a4.21 4.21 0 0 1 -.57 5.34l-2.43 2.3a6.72 6.72 0 0 0 -1.82 6.63 2.9 2.9 0 0 1 -1.14 3.24z" fill="#f2f2f2"/><path d="m28.29 92-9.19-13.91 21.22-14 2.67 4a4.68 4.68 0 0 1 -.67 6l-2.4 2.31a6.16 6.16 0 0 0 -1.68 6.13 3.42 3.42 0 0 1 -1.35 3.79zm-7.8-13.6 8.08 12.2 7.77-5.14a2.41 2.41 0 0 0 .93-2.69 7.2 7.2 0 0 1 1.95-7.12l2.41-2.31a3.69 3.69 0 0 0 .52-4.7l-2.15-3.2z" fill="#828282"/><rect fill="#f2f2f2" height="5.06" rx="2.53" transform="matrix(.55179144 .83398214 -.83398214 .55179144 81.71 20.26)" width="19.97" x="12.02" y="83.63"/><path d="m26.13 95.4a3.08 3.08 0 0 1 -.61-.06 3 3 0 0 1 -1.93-1.34l-8.22-12.39a3 3 0 1 1 5.05-3.34l8.23 12.43a3 3 0 0 1 -2.52 4.7zm-8.24-17.49a2.07 2.07 0 0 0 -1.12.34 2 2 0 0 0 -.57 2.81l8.23 12.43a2 2 0 1 0 3.38-2.24l-8.23-12.43a2 2 0 0 0 -1.28-.82 2.85 2.85 0 0 0 -.41-.09z" fill="#828282"/><path d="m8.03 86.02 7.63-5.05 8.63 13.06-7.62 5.04" fill="#f2f2f2"/><path d="m16.95 99.49-.56-.83 7.21-4.77-8.08-12.22-7.21 4.77-.56-.84 8.05-5.32 9.19 13.89z" fill="#828282"/><path d="m53.11 78.94c.32 0 1.19.1.77-3.41-.22-1.8-1.5-3.21-2.93-3.22a15.53 15.53 0 0 0 -1.74 0c-.33.1-.81.24-.78 1.29 0 .41 0 .84.06 1.22a2.62 2.62 0 0 0 .79 1.73c.92.89 2.54 2.22 3.83 2.39z" fill="#f2f2f2"/><path d="m53.24 79.45h-.19c-1.37-.18-3-1.43-4.1-2.46a3.1 3.1 0 0 1 -1-2.07c0-.38 0-.82-.06-1.23 0-1.44.79-1.69 1.14-1.79a7.88 7.88 0 0 1 1.97-.09c1.7 0 3.18 1.59 3.43 3.66.31 2.62-.09 3.35-.41 3.68a1 1 0 0 1 -.78.3zm-.07-1a.27.27 0 0 0 .09 0s.43-.31.12-2.85c-.18-1.55-1.25-2.77-2.44-2.78s-1.57 0-1.61 0c-.24.08-.42.13-.4.8 0 .4 0 .82.06 1.19a2.13 2.13 0 0 0 .63 1.4 8.08 8.08 0 0 0 3.55 2.23z" fill="#828282"/><path d="m51.9 61.14a8.57 8.57 0 0 1 -.78 3c-.7 1.32-1.81 2.52-3.49 1.87-1.32-.52-.65-4.59-.65-4.59.16-1.32 1.65-2.46 2.42-2.95a.93.93 0 0 1 .94 0 2.8 2.8 0 0 1 1.56 2.67z" fill="#f2f2f2"/><path d="m48.55 66.68a3 3 0 0 1 -1.1-.22c-1.58-.61-1.14-4.08-1-5.13.2-1.64 2.08-2.93 2.65-3.29a1.43 1.43 0 0 1 1.44 0 3.3 3.3 0 0 1 1.82 3.17 9 9 0 0 1 -.83 3.19c-.92 1.75-2.02 2.28-2.98 2.28zm1.34-7.86a.34.34 0 0 0 -.22.07c-1 .61-2.07 1.61-2.19 2.58-.29 1.76-.23 3.85.33 4.06.4.16 1.65.64 2.87-1.64a8.09 8.09 0 0 0 .72-2.78 2.28 2.28 0 0 0 -1.3-2.23.42.42 0 0 0 -.21-.06z" fill="#828282"/><path d="m103.15 118.46h-103v-103h103zm-102-1h101v-101h-101z" fill="#d6d6d6"/><path d="m320.19 79.07c-3.65-1.42-10.15-5.32-15.56-8.82-5.06-3.27-10.2-8.12-14.48-12.38-2.67-2.65-8.66-2-9.4 6.15-1.28 14.03 14.25 19.78 14.25 19.78-.34.02 18.45 3.99 25.19-4.73z" fill="url(#b)"/><g fill="#828282"><path d="m266.12 64.52a4.28 4.28 0 0 1 -2.23-.51 3.12 3.12 0 0 1 -1.39-2.63 8.06 8.06 0 0 1 1.09-3.66 11.53 11.53 0 0 0 1.41-4.61c0-1.54-3.38-2.35-5.61-2.88a4.82 4.82 0 0 1 -3-7.16c2.5-4.15 6.15-10.36 9.39-16.42l.88.47c-3.25 6.08-6.91 12.31-9.41 16.46a3.81 3.81 0 0 0 2.38 5.67c2.84.68 6.38 1.53 6.38 3.86a12.31 12.31 0 0 1 -1.47 5 7.72 7.72 0 0 0 -1 3.16 2.14 2.14 0 0 0 .91 1.85c1.05.63 3.73.76 10.48-2.19l1.11-.44a67.28 67.28 0 0 0 9.61-4.89c10.48-6.27 30.72-1.61 31.58-1.41l-.23 1c-.21 0-20.71-4.76-30.83 1.29a68.4 68.4 0 0 1 -9.76 5l-1.09.43c-4.08 1.73-7.11 2.61-9.2 2.61z"/><path d="m309 107.33a19 19 0 0 0 -6.12-5c-8.29-4.57-19.56-3.25-27-2.38-1.23.15-2.36.28-3.34.37a4.42 4.42 0 0 1 -3.5-1.13c-3-2.8-3-10-2.95-13.4 0-.65 0-1.15 0-1.42a24.5 24.5 0 0 0 -1.62-5.29c-.46-1.22-.9-2.37-1.18-3.34a1.38 1.38 0 0 1 .26-1.35c1.29-1.5 6.36-.93 7.5-.78.82-.06 6-.36 7.61 1.4.09.1 5.92 7.46 13.95 8.25-4.29-2.26-13.36-8.26-12.36-19.26.49-5.41 3.1-7.14 4.61-7.69a5.41 5.41 0 0 1 5.64 1.23c4 4 9.27 9 14.4 12.31 6.66 4.32 14.69 9 17.25 9.3l-.11 1c-3.34-.36-13.48-6.72-17.68-9.45-5.22-3.37-10.52-8.42-14.56-12.44a4.41 4.41 0 0 0 -4.6-1c-1.29.47-3.51 2-3.95 6.84-1.25 13.46 13.75 19.18 13.88 19.24l2.18.81-2.31.15c-9.75.65-16.8-8.26-17.09-8.64-1.09-1.19-5.3-1.15-6.83-1h-.08c-2.34-.31-6-.38-6.66.43a.39.39 0 0 0 -.06.42c.27.93.7 2.07 1.15 3.27a25.18 25.18 0 0 1 1.69 5.56v1.51c0 3-.08 10.16 2.63 12.65a3.35 3.35 0 0 0 2.72.87c1-.09 2.1-.22 3.33-.36 7.59-.89 19.05-2.23 27.63 2.5a20.12 20.12 0 0 1 6.43 5.25z"/><path d="m266.85 51.63h-.09c-.87-.05-1.88-.85-2.1-2.94l-.09-.73.72.2c.76.22 3.23 1 2.91 2.43a1.36 1.36 0 0 1 -1.35 1.04zm-1.05-2.24c.24.82.65 1.22 1 1.24a.35.35 0 0 0 .4-.26c.07-.2-.54-.63-1.4-.98z"/></g><path d="m251.61 90.9-8.61-13.06 20.38-13.48 2.36 3.64a4.19 4.19 0 0 1 -.59 5.34l-2.41 2.31a6.71 6.71 0 0 0 -1.81 6.63 2.92 2.92 0 0 1 -1.14 3.24z" fill="#f2f2f2"/><path d="m251.47 91.59-9.19-13.89 21.21-14 2.67 4a4.69 4.69 0 0 1 -.66 6l-2.41 2.3a6.19 6.19 0 0 0 -1.68 6.13 3.41 3.41 0 0 1 -1.35 3.79zm-7.81-13.59 8.09 12.22 7.76-5.14a2.42 2.42 0 0 0 .94-2.69 7.18 7.18 0 0 1 1.95-7.12l2.4-2.27a3.68 3.68 0 0 0 .52-4.7l-2.11-3.2z" fill="#828282"/><rect fill="#f2f2f2" height="5.06" rx="2.53" transform="matrix(.55179144 .83398214 -.83398214 .55179144 181.41 -166.03)" width="19.97" x="235.2" y="83.24"/><path d="m249.3 95a3.15 3.15 0 0 1 -.61-.06 3 3 0 0 1 -1.92-1.29l-8.23-12.44a3 3 0 0 1 -.44-2.21 3 3 0 0 1 1.3-2 3 3 0 0 1 4.19.85l8.23 12.43a3 3 0 0 1 -.85 4.2 3.05 3.05 0 0 1 -1.67.52zm-1.7-1.91a2 2 0 0 0 1.29.87 2 2 0 0 0 1.52-.3 2 2 0 0 0 .87-1.28 2.07 2.07 0 0 0 -.29-1.53l-8.23-12.43a2 2 0 0 0 -1.29-.87 2 2 0 0 0 -1.52.3 2 2 0 0 0 -.58 2.81z" fill="#828282"/><path d="m231.2 85.63 7.63-5.05 8.64 13.06-7.63 5.04" fill="#f2f2f2"/><path d="m240.12 99.1-.55-.83 7.21-4.77-8.09-12.22-7.21 4.77-.55-.84 8.04-5.32 9.19 13.89z" fill="#828282"/><path d="m276.28 78.54c.33 0 1.2.11.77-3.4-.21-1.8-1.49-3.21-2.93-3.22a15.19 15.19 0 0 0 -1.73 0c-.34.1-.82.24-.78 1.29 0 .41 0 .84.06 1.22a2.53 2.53 0 0 0 .79 1.73c.91.89 2.54 2.22 3.82 2.38z" fill="#f2f2f2"/><path d="m276.41 79.05h-.19c-1.37-.18-3-1.44-4.1-2.46a3.09 3.09 0 0 1 -.95-2.07c0-.38-.05-.82-.06-1.23-.05-1.45.78-1.69 1.14-1.79a7.46 7.46 0 0 1 1.87-.07c1.71 0 3.18 1.59 3.43 3.66.32 2.62-.08 3.35-.41 3.68a1 1 0 0 1 -.73.28zm-2.69-6.63c-1 0-1.18 0-1.22 0-.24.08-.41.13-.39.8 0 .4 0 .82.06 1.19a2.08 2.08 0 0 0 .63 1.4 8 8 0 0 0 3.55 2.21s.07 0 .08 0 .43-.32.13-2.85c-.19-1.55-1.26-2.77-2.44-2.78z" fill="#828282"/><path d="m275.07 60.75a8.44 8.44 0 0 1 -.77 3c-.71 1.32-1.82 2.52-3.5 1.87-1.32-.52-.64-4.59-.64-4.59.16-1.32 1.64-2.47 2.42-3a.93.93 0 0 1 .94 0 2.81 2.81 0 0 1 1.55 2.72z" fill="#f2f2f2"/><path d="m271.72 66.29a3 3 0 0 1 -1.1-.22c-1.58-.61-1.13-4.08-1-5.13.2-1.64 2.08-2.93 2.65-3.29a1.45 1.45 0 0 1 1.45 0 3.28 3.28 0 0 1 1.81 3.17 9 9 0 0 1 -.83 3.19c-.92 1.75-2.02 2.28-2.98 2.28zm1.34-7.86a.38.38 0 0 0 -.22.07c-1 .61-2.07 1.61-2.19 2.58-.29 1.76-.22 3.85.33 4.06s1.65.64 2.88-1.64a8 8 0 0 0 .71-2.78 2.28 2.28 0 0 0 -1.3-2.23.37.37 0 0 0 -.21-.06z" fill="#828282"/><path d="m328.15 118.46h-103v-103h103zm-102-1h101v-101h-101z" fill="#d6d6d6"/><path d="m206.45 80.48c-6.95-6.64-12.5-18.35-29-10.63-12.51 5.83 5.43 14 6.14 14.31 5.88.77 16.73 1.32 22.86-3.68z" fill="url(#c)"/><g fill="#828282"><path d="m154.75 64.89a4.26 4.26 0 0 1 -2.23-.51 3.12 3.12 0 0 1 -1.39-2.63 8.06 8.06 0 0 1 1.09-3.66 11.69 11.69 0 0 0 1.38-4.61c0-1.54-3.38-2.35-5.62-2.88a4.81 4.81 0 0 1 -3-7.16c2.55-4.24 6.28-10.59 9.55-16.72l.88.47c-3.28 6.15-7 12.51-9.57 16.76a3.81 3.81 0 0 0 2.38 5.67c2.84.68 6.38 1.53 6.38 3.86a12.17 12.17 0 0 1 -1.48 5 7.88 7.88 0 0 0 -1 3.16 2.14 2.14 0 0 0 .91 1.85c1.05.63 3.72.76 10.48-2.19l1.11-.44a67.28 67.28 0 0 0 9.61-4.86c10.48-6.27 30.72-1.61 31.57-1.41l-.23 1c-.2-.05-20.7-4.76-30.83 1.29a66.81 66.81 0 0 1 -9.75 5l-1.1.43c-4.02 1.69-7.05 2.58-9.14 2.58z"/><path d="m196.78 107.26a18.29 18.29 0 0 0 -5.24-4.55c-8-4.8-19.18-3.38-26.6-2.45-1.4.18-2.67.34-3.77.44a4.4 4.4 0 0 1 -3.49-1.13c-3-2.8-3-10-3-13.4 0-.65 0-1.15 0-1.42a25.25 25.25 0 0 0 -1.62-5.29c-.47-1.22-.9-2.37-1.18-3.34a1.39 1.39 0 0 1 .26-1.35c1.29-1.5 6.36-.93 7.5-.78.82-.06 6-.36 7.61 1.4.08.11 6 7.55 14.09 8.26-3.14-1.66-8.85-5.19-8.89-9 0-2 1.56-3.82 4.71-5.29 14-6.54 20.42.65 26.08 7a48.9 48.9 0 0 0 4.55 4.64l-.65.76a49.77 49.77 0 0 1 -4.61-4.76c-5.68-6.37-11.57-13-24.91-6.74-2.76 1.29-4.15 2.76-4.13 4.37 0 3.7 7.44 7.79 10.29 9l1.86.82-2 .13c-9.74.64-16.79-8.26-17.09-8.64-1.08-1.19-5.29-1.15-6.82-1h-.1c-2.34-.31-6-.38-6.66.43a.39.39 0 0 0 -.06.42c.27.93.7 2.07 1.15 3.27a25.18 25.18 0 0 1 1.69 5.56v1.51c0 3-.08 10.16 2.63 12.65a3.35 3.35 0 0 0 2.72.87c1.09-.1 2.35-.25 3.73-.43 7.56-1 19-2.39 27.24 2.58a19.46 19.46 0 0 1 5.53 4.8z"/><path d="m155.48 52h-.09c-.87 0-1.88-.85-2.11-2.94l-.08-.73.72.2c.76.22 3.22 1 2.9 2.43a1.35 1.35 0 0 1 -1.34 1.04zm-1-2.24c.23.82.65 1.22 1 1.24a.35.35 0 0 0 .4-.26c.01-.2-.6-.63-1.45-.98z"/></g><path d="m140.24 91.27-8.64-13 20.4-13.54 2.39 3.61a4.19 4.19 0 0 1 -.59 5.34l-2.43 2.32a6.71 6.71 0 0 0 -1.81 6.63 2.91 2.91 0 0 1 -1.14 3.24z" fill="#f2f2f2"/><path d="m140.1 92-9.19-13.89 21.21-14 2.67 4a4.69 4.69 0 0 1 -.66 6l-2.41 2.31a6.19 6.19 0 0 0 -1.72 6.06 3.42 3.42 0 0 1 -1.35 3.79zm-7.81-13.6 8.09 12.22 7.76-5.14a2.41 2.41 0 0 0 .93-2.69 7.22 7.22 0 0 1 2-7.12l2.41-2.31a3.68 3.68 0 0 0 .52-4.7l-2.11-3.2z" fill="#828282"/><rect fill="#f2f2f2" height="5.06" rx="2.53" transform="matrix(.55179144 .83398214 -.83398214 .55179144 131.8 -72.99)" width="19.97" x="123.83" y="83.61"/><path d="m137.93 95.38a3.08 3.08 0 0 1 -.61-.06 3 3 0 0 1 -1.92-1.32l-8.23-12.44a3 3 0 0 1 3.13-4.56 3.08 3.08 0 0 1 1.92 1.3l8.23 12.43a3 3 0 0 1 -.86 4.2 3 3 0 0 1 -1.66.45zm-8.24-17.49a2.07 2.07 0 0 0 -1.12.34 2 2 0 0 0 -.86 1.29 2 2 0 0 0 .29 1.48l8.23 12.43a2 2 0 1 0 3.38-2.24l-8.22-12.39a2 2 0 0 0 -1.29-.87 2.85 2.85 0 0 0 -.41-.04z" fill="#828282"/><path d="m119.83 86 7.63-5.05 8.64 13.06-7.63 5.04" fill="#f2f2f2"/><path d="m128.75 99.47-.56-.83 7.21-4.77-8.08-12.22-7.21 4.77-.55-.84 8.04-5.32 9.19 13.89z" fill="#828282"/><path d="m164.91 78.92c.32 0 1.19.1.77-3.41-.22-1.8-1.49-3.21-2.93-3.22a15.53 15.53 0 0 0 -1.74 0c-.33.1-.81.24-.78 1.29 0 .41 0 .84.07 1.22a2.53 2.53 0 0 0 .79 1.73c.91.89 2.53 2.22 3.82 2.39z" fill="#f2f2f2"/><path d="m165 79.42h-.19c-1.37-.18-3-1.44-4.1-2.46a3.09 3.09 0 0 1 -.95-2.07c0-.38-.05-.82-.07-1.23 0-1.44.79-1.69 1.14-1.79a7.79 7.79 0 0 1 1.88-.07c1.7 0 3.18 1.59 3.43 3.66.31 2.62-.08 3.35-.41 3.68a1 1 0 0 1 -.73.28zm-2.65-6.63c-1 0-1.21 0-1.26 0-.24.08-.42.13-.4.8 0 .4 0 .83.06 1.19a2.17 2.17 0 0 0 .63 1.4 8.1 8.1 0 0 0 3.62 2.24s.07 0 .08 0 .43-.32.13-2.85c-.19-1.55-1.26-2.77-2.44-2.78z" fill="#828282"/><path d="m163.7 61.12a8.44 8.44 0 0 1 -.77 3c-.71 1.32-1.82 2.52-3.5 1.87-1.32-.52-.65-4.59-.65-4.59.16-1.32 1.65-2.46 2.42-3a.93.93 0 0 1 .94 0 2.8 2.8 0 0 1 1.56 2.72z" fill="#f2f2f2"/><path d="m160.35 66.66a3 3 0 0 1 -1.1-.22c-1.58-.61-1.13-4.08-1-5.13.2-1.64 2.08-2.93 2.65-3.29a1.44 1.44 0 0 1 1.45 0 3.29 3.29 0 0 1 1.81 3.17 9 9 0 0 1 -.83 3.19c-.92 1.75-2.02 2.28-2.98 2.28zm1.34-7.86a.36.36 0 0 0 -.22.07c-1 .61-2.07 1.61-2.19 2.58-.29 1.76-.22 3.84.33 4.06s1.66.64 2.88-1.64a8 8 0 0 0 .71-2.78 2.28 2.28 0 0 0 -1.3-2.23.39.39 0 0 0 -.21-.06z" fill="#828282"/><g fill="#003dff"><path d="m177.62 60.37-1.25-2.37-3.43 6.68 7.46.84-1.4-2.52c2.36-1.29 7.75-3.23 16.31-.88l.8-2.9c-9.41-2.57-15.58-.42-18.49 1.15z"/><path d="m193.9 44.21v.47h-10.13v-.47h4.23v-2.38h.5v2.38zm-2 2.25c.84.31 1.26.78 1.26 1.4s-.42 1.09-1.26 1.41a10.39 10.39 0 0 1 -6.18 0c-.85-.32-1.27-.78-1.27-1.41s.42-1.13 1.25-1.43a9.54 9.54 0 0 1 3.11-.44 9 9 0 0 1 3.12.47zm.64-6.19h-8v-.47h8.54v3.49h-.5zm-1 8.64q1.17-.36 1.17-1c0-.45-.39-.8-1.17-1a9.05 9.05 0 0 0 -2.68-.36 9.88 9.88 0 0 0 -2.72.33c-.76.23-1.14.58-1.14 1.07s.39.81 1.17 1a10.19 10.19 0 0 0 5.37 0z"/><path d="m201.38 42.27a9 9 0 0 1 -.66 3.57 5.32 5.32 0 0 1 -1.91 2.37 5.08 5.08 0 0 1 -2.93.84v-.48a4.58 4.58 0 0 0 2.64-.76 4.9 4.9 0 0 0 1.74-2.18 8.25 8.25 0 0 0 .61-3.31v-1.8h-5v-.47h5.5zm3.24 7.55h-.51v-10.25h.51z"/></g><path d="m215.15 118.46h-103v-103h103zm-102-1h101v-101h-101z" fill="#d6d6d6"/></svg>