<svg viewBox="0 0 156 200" xmlns="http://www.w3.org/2000/svg" xmlns:xlink="http://www.w3.org/1999/xlink"><linearGradient id="a" gradientUnits="userSpaceOnUse" x1="108.41" x2="108.41" y1="157.18" y2="31.54"><stop offset="0" stop-color="#f2f2f2"/><stop offset=".1" stop-color="#f3f0ef"/><stop offset=".19" stop-color="#f7ebe4"/><stop offset=".27" stop-color="#fce2d3"/><stop offset=".3" stop-color="#ffdecb"/><stop offset="1" stop-color="#ffb794"/></linearGradient><path d="m0 0h156v200h-156z" fill="#f2f2f2"/><circle cx="54.07" cy="134.85" fill="#fff" r="25"/><path d="m54.07 112.85a22 22 0 1 1 -22 22 22 22 0 0 1 22-22m0-6a28 28 0 1 0 28 28 28 28 0 0 0 -28-28z" fill="#e8e8e8"/><path d="m54.07 114.09a20.76 20.76 0 1 1 -20.76 20.76 20.79 20.79 0 0 1 20.76-20.76m0-2a22.76 22.76 0 1 0 22.76 22.76 22.76 22.76 0 0 0 -22.76-22.76z" fill="#b2b2b2"/><path d="m103.16 129c-1.33 0-2.68-.07-4.08-.19a1 1 0 1 1 .18-2c1.34.12 2.63.18 3.82.18a1 1 0 0 1 1 1 1 1 0 0 1 -.92 1.01zm6-.65a1 1 0 0 1 -1-.76 1 1 0 0 1 .73-1.21 13.15 13.15 0 0 0 2.66-1 1 1 0 1 1 .91 1.78 15.27 15.27 0 0 1 -3.08 1.13zm-15.89-.38a.55.55 0 0 1 -.18 0c-1.28-.23-2.61-.51-4-.83a1 1 0 0 1 .45-1.95c1.32.31 2.63.59 3.87.82a1 1 0 0 1 -.18 2zm-42.83-.7a1 1 0 0 1 0-2c1.26 0 2.58-.13 3.93-.25a1 1 0 1 1 .18 2c-1.39.13-2.75.22-4 .26zm-6-.15h-.09a40.72 40.72 0 0 1 -4.05-.57 1 1 0 0 1 .38-2 34.63 34.63 0 0 0 3.85.55 1 1 0 0 1 -.09 2zm15.93-.88a1 1 0 0 1 -.16-2c1.26-.21 2.57-.45 3.89-.72a1 1 0 0 1 .4 2c-1.34.28-2.68.52-4 .74zm23.16-.62a.84.84 0 0 1 -.27 0c-1.43-.41-2.73-.82-3.86-1.19a1 1 0 1 1 .62-1.9c1.11.36 2.39.76 3.79 1.17a1 1 0 0 1 .68 1.24 1 1 0 0 1 -1 .63zm-48.75-.82a1 1 0 0 1 -.41-.09 21.4 21.4 0 0 1 -3.64-2 1 1 0 0 1 -.24-1.4 1 1 0 0 1 1.39-.24 18.89 18.89 0 0 0 3.31 1.86 1 1 0 0 1 .5 1.32 1 1 0 0 1 -.95.5zm35.37-.63a1 1 0 0 1 -.25-2c1.25-.32 2.53-.66 3.84-1a1 1 0 0 1 1.24.69 1 1 0 0 1 -.7 1.23c-1.33.38-2.62.73-3.88 1zm-43.15-5.57a1 1 0 0 1 -.81-.41 19.94 19.94 0 0 1 -2.09-3.64 1 1 0 1 1 1.82-.82 18.54 18.54 0 0 0 1.91 3.27 1 1 0 0 1 -.23 1.39 1 1 0 0 1 -.6.21zm-3.75-9.19a1 1 0 0 1 -1-.81c-.25-1.3-.41-2.52-.54-3.49l-.07-.52a1 1 0 1 1 2-.27l.07.52c.13 1 .28 2.13.53 3.38a1 1 0 0 1 -.79 1.18zm.9-9.33a1 1 0 0 1 -.85-.46 1 1 0 0 1 .3-1.38 10 10 0 0 1 4.21-1.32 1 1 0 1 1 .25 2 8.16 8.16 0 0 0 -3.37 1 1 1 0 0 1 -.52.16zm13.2-1.29c-.84 0-1.72 0-2.61 0h-.83a1 1 0 1 1 0-2h.83 2.57.53a1 1 0 0 1 1.05 1 1 1 0 0 1 -1 1zm6.52-.91a1 1 0 0 1 -.2-2c1.22-.25 2.52-.54 3.88-.86a1 1 0 0 1 .45 1.98c-1.38.32-2.7.62-3.94.87zm63.13-1.38h-.17s-1.53-.27-4-.67a1 1 0 0 1 -.82-1.15 1 1 0 0 1 1.15-.82c2.44.4 4 .67 4 .67a1 1 0 0 1 -.17 2zm-53.4-.89a1 1 0 0 1 -.24-2h.2l3.7-.9a1 1 0 0 1 .46 1.94l-3.68.9h-.2a1 1 0 0 1 -.2.06zm43.5-.74h-.1c-1.26-.2-2.59-.41-4-.61a1 1 0 0 1 .3-2l4 .61a1 1 0 0 1 -.15 2zm-9.91-1.48h-.14l-4-.52a1 1 0 0 1 -.86-1.12 1 1 0 0 1 1.11-.87l4 .53a1 1 0 0 1 -.14 2zm-23.85-.08a1 1 0 0 1 -.21-2c1.49-.32 2.78-.57 4-.78a1 1 0 1 1 .34 2c-1.16.2-2.43.45-3.89.77zm13.9-1.11h-.09c-1.59-.15-2.91-.23-3.93-.25a1 1 0 0 1 -1-1 1 1 0 0 1 1-1c1.07 0 2.44.11 4.08.26a1 1 0 0 1 -.1 2z" fill="#9b9b9b"/><path d="m35.91 107.18a28 28 0 0 1 -4.12-.52 1 1 0 0 1 .4-2 25.24 25.24 0 0 0 3.82.48 1 1 0 0 1 .95 1 1 1 0 0 1 -1.05 1.04zm5.94-.62a1 1 0 0 1 -1-.72 1 1 0 0 1 .68-1.24 12.79 12.79 0 0 0 2-.77 3.89 3.89 0 0 0 .44-.79 1 1 0 1 1 1.85.75 4.57 4.57 0 0 1 -1 1.58l-.24.16a14.5 14.5 0 0 1 -2.55 1 .84.84 0 0 1 -.18.03zm-15.67-1.56a.87.87 0 0 1 -.35-.07 32.43 32.43 0 0 1 -3.78-1.69 1 1 0 1 1 1-1.75 35.73 35.73 0 0 0 3.53 1.57 1 1 0 0 1 -.36 1.94zm18.87-6.48a1 1 0 0 1 -1-.76c-.06-.25-.14-.51-.22-.78a1 1 0 0 1 1.92-.57q.13.45.24.87a1 1 0 0 1 -.73 1.21 1 1 0 0 1 -.21.02z" fill="#9b9b9b"/><path d="m128.51 113.78c-1.15-17.14-4.57-30.84-9.14-41.12s-10.28-41.12-14.85-41.12-24 6.86-19.41 34.27c0 0 2.28 12.56 10.28 21.7 0 0-6.86 17.13 4.56 38.83a80 80 0 0 0 -4.13 19.66h36.59c-1.41-9.19-3.24-22.25-3.9-32.22z" fill="url(#a)"/><path d="m106.27 58.48 2.88-.51a6.06 6.06 0 0 0 4.74-7.75c-3.8-12.34-6.89-21.46-9.65-21.46a18.41 18.41 0 0 0 -6.59 1.71s-2.65 8.86 1.73 23.71a6.09 6.09 0 0 0 6.89 4.3z" fill="#ffe7d9"/><g fill="#ff6464"><path d="m82.48 75.21-6.86-6.86 8.39-1.53z"/><path d="m58.14 121.49-4.85-7.03h9.7z"/><path d="m59.89 115.28-3.5-.28c1.33-16.55 8.82-32.18 21.66-45.22l2.5 2.47c-12.26 12.44-19.4 27.32-20.66 43.03z"/></g><g fill="#d18e7c"><path d="m94.22 87.46c1.09-.28 2-.41 2.89-.65a10.42 10.42 0 0 0 1.32-.38c.46-.13.89-.34 1.45-.52a3.34 3.34 0 0 1 -2.46 2.14 4.28 4.28 0 0 1 -1.67.06 3.2 3.2 0 0 1 -1.53-.65z"/><path d="m98.92 126.33c1.19-.14 2.1-.19 3-.38.45-.08.89-.19 1.36-.32s.94-.31 1.55-.46a2.88 2.88 0 0 1 -1 1.47 3.59 3.59 0 0 1 -1.64.76 3.73 3.73 0 0 1 -1.79-.1 2.84 2.84 0 0 1 -1.48-.97z"/><path d="m134.38 145.69c-1.4-9.16-3.22-22.16-3.88-32-1.08-16.28-4.21-30.34-9.3-41.79-1.67-3.74-3.58-10.66-5.44-17.38a8.07 8.07 0 0 0 0-4.84c-5.19-16.88-7.72-22.87-11.56-22.87a20.61 20.61 0 0 0 -7.38 1.87l-.82.32-.27.91a21.55 21.55 0 0 0 -.54 2.85c-6.36 3.89-15.43 13.14-12.06 33.38.1.54 2.34 12.46 10 21.79-1.35 4.28-5 19.63 4.66 38.56a83.75 83.75 0 0 0 -4 19.32l-.15 2.19h2l.13-2a80 80 0 0 1 4.23-19.66c-11.42-21.7-4.56-38.83-4.56-38.83-8-9.14-10.28-21.7-10.28-21.7-3.14-18.83 5-28 12-31.83a21.21 21.21 0 0 1 .59-3.51 18.41 18.41 0 0 1 6.59-1.71c2.76 0 5.85 9.12 9.65 21.46a6 6 0 0 1 -.23 4.16c2 7.19 3.93 14.29 5.71 18.28 4.57 10.28 8 24 9.14 41.12.66 10 2.49 23 3.9 32.21l.3 2h2z"/></g></svg>