<svg viewBox="0 0 156 200" xmlns="http://www.w3.org/2000/svg" xmlns:xlink="http://www.w3.org/1999/xlink"><linearGradient id="a" gradientUnits="userSpaceOnUse" x1="33.2" x2="127.36" y1="70.64" y2="70.64"><stop offset="0" stop-color="#ffb794"/><stop offset=".74" stop-color="#ffdecb"/><stop offset="1" stop-color="#f2f2f2"/></linearGradient><path d="m0 0h156v200h-156z" fill="#f2f2f2"/><circle cx="61.37" cy="134.17" fill="#fff" r="25"/><path d="m61.37 112.17a22 22 0 1 1 -22 22 22 22 0 0 1 22-22m0-6a28 28 0 1 0 28 28 28 28 0 0 0 -28-28z" fill="#e8e8e8"/><path d="m61.37 113.41a20.76 20.76 0 1 1 -20.75 20.76 20.78 20.78 0 0 1 20.75-20.76m0-2a22.76 22.76 0 1 0 22.76 22.76 22.75 22.75 0 0 0 -22.76-22.76z" fill="#b2b2b2"/><g fill="#918b8b"><path d="m64.09 117.85a1 1 0 0 1 -1-1 1 1 0 0 1 1-1c.84 0 2.21-.06 4-.16a1 1 0 0 1 1 .94 1 1 0 0 1 -.94 1.06c-1.79.1-3.19.14-4 .16zm-6-.23h-.09c-1.38-.09-2.74-.21-4-.35a1 1 0 0 1 .21-2c1.27.14 2.59.25 3.95.34a1 1 0 0 1 -.07 2zm16-.42a1 1 0 0 1 -1-.89 1 1 0 0 1 .91-1.11c1.34-.14 2.66-.31 3.93-.49a1 1 0 0 1 .29 2c-1.29.19-2.64.36-4 .51zm-25.9-.78h-.19c-1.38-.26-2.72-.55-4-.88a1 1 0 1 1 .5-1.93c1.21.31 2.5.59 3.84.84a1 1 0 0 1 -.18 2zm35.81-.79a1 1 0 0 1 -.21-2c1.34-.29 2.63-.61 3.83-1a1 1 0 0 1 .54 1.92c-1.24.35-2.56.69-3.94 1zm23.47-1.93c-1.36 0-2.71-.06-4-.12a1 1 0 1 1 .1-2c1.3.06 2.63.1 4 .12a1 1 0 0 1 0 2zm-68.84 0a1.09 1.09 0 0 1 -.39-.08 30.25 30.25 0 0 1 -3.69-1.87 1 1 0 1 1 1-1.71 27.43 27.43 0 0 0 3.45 1.72 1 1 0 0 1 -.39 1.92zm74.84-.07a1 1 0 0 1 0-2c1.27-.05 2.59-.13 4-.22a1 1 0 1 1 .14 2c-1.39.1-2.73.17-4 .22zm-16-.51h-.11c-1.79-.2-3-.4-3.5-.49a1.05 1.05 0 0 1 -1.21-.55 1 1 0 0 1 .47-1.3l.52-.23.32.06s1.3.26 3.62.53a1 1 0 0 1 .88 1.1 1 1 0 0 1 -1.01.86zm25.94-.28a1 1 0 0 1 -.11-2c1.28-.16 2.59-.33 3.93-.54a1 1 0 0 1 1.14.84 1 1 0 0 1 -.84 1.14c-1.36.21-2.69.39-4 .54zm-92.94-4.84a1 1 0 0 1 -.77-.37 13.78 13.78 0 0 1 -2.19-3.63 1 1 0 0 1 .57-1.3 1 1 0 0 1 1.29.57 11.74 11.74 0 0 0 1.88 3.15 1 1 0 0 1 -.78 1.64zm-2.77-9.29h-.11a1 1 0 0 1 -.89-1.1 15.63 15.63 0 0 1 1-4.14 1 1 0 0 1 1.86.75 13.6 13.6 0 0 0 -.91 3.6 1 1 0 0 1 -.95.89zm4.53-8.53a1 1 0 0 1 -.94-.64 1 1 0 0 1 .58-1.29 27.31 27.31 0 0 1 4.06-1 1 1 0 1 1 .38 2 26.41 26.41 0 0 0 -3.72.91.92.92 0 0 1 -.36.02zm9.82-2a1 1 0 0 1 -1-.85 1 1 0 0 1 .83-1.14l4-.58a1 1 0 0 1 .28 2l-3.95.58zm9.95-1.35a1 1 0 0 1 -.13-2l4-.51a1 1 0 1 1 .25 2l-4 .51zm9.94-1.25a1 1 0 0 1 -.12-2l4-.48a1 1 0 0 1 .24 2l-4 .48zm10-1.2a1 1 0 0 1 -.12-2l4-.48a1 1 0 1 1 .24 2l-4 .48zm9.95-1.24a1 1 0 0 1 -.13-2l1.36-.2c.6-.09 1.47-.2 2.65-.32a1 1 0 0 1 .2 2c-1.13.12-2 .22-2.54.31-.36.06-.84.13-1.4.2zm10-1a1 1 0 0 1 -.07-2l4-.29a1 1 0 0 1 1.07.93 1 1 0 0 1 -.93 1.06l-4 .29zm10-.69a1 1 0 0 1 -1-.94 1 1 0 0 1 .93-1.06l4-.25a1 1 0 0 1 .13 2l-4 .26zm10-.62a1 1 0 0 1 -.06-2l4-.24a1 1 0 0 1 1 1 1 1 0 0 1 -.94 1l-4 .23z"/><path d="m29.85 97.83h-.15c-1.26-.19-2-.36-2-.36a1 1 0 0 1 .43-2s.72.16 1.91.35a1 1 0 0 1 .8 1.18 1 1 0 0 1 -.99.83z"/><path d="m37.69 98.44c-.88 0-1.74 0-2.55-.07a1 1 0 1 1 .11-2c1.1.05 2.28.07 3.5.05a1 1 0 0 1 1 1 1 1 0 0 1 -1 1zm6.44-.51a1 1 0 0 1 -.13-1.93 26.85 26.85 0 0 0 3.37-.79 1 1 0 0 1 .58 1.92 29.1 29.1 0 0 1 -3.62.84zm8.38-3a1 1 0 0 1 -.51-1.84 15 15 0 0 0 2.59-2.09 1 1 0 1 1 1.41 1.4 17 17 0 0 1 -3 2.38 1 1 0 0 1 -.49.15z"/><path d="m57.37 88a1 1 0 0 1 -1-.74 2.61 2.61 0 0 0 -.75-1.26 1 1 0 0 1 0-1.42 1 1 0 0 1 1.41 0 4.65 4.65 0 0 1 1.33 2.14 1 1 0 0 1 -.71 1.22.82.82 0 0 1 -.28.06z"/></g><path d="m127.36 84.9c-20.21 4.75-34.47 1.19-34.47 1.19-10.7 5.91-27.34 5.91-27.34 5.91-42.79-1.16-32.09-28.5-28.55-30.87s40.44-7.13 46.38-8.32 42.79-3.57 42.79-3.57z" fill="url(#a)"/><path d="m67.63 59a17.69 17.69 0 0 0 -1.28-3.54c-3.1-1.21-9.77-1-16.13 0h-.09c-1.06.16-2.11.34-3.14.54l-4.5.8c-5.21.93-6.07 2-6.2 2.25a13.93 13.93 0 0 0 -.55 6.13 14.93 14.93 0 0 0 5.26 2.5 29.86 29.86 0 0 0 7.7 1.12c6 .15 17.79-.38 19-6.69a7.67 7.67 0 0 0 -.07-3.11z" fill="#ffe7d9"/><path d="m95.68 82.46a1.48 1.48 0 0 1 .22 1.69 4 4 0 0 1 -1 1.38 5.31 5.31 0 0 1 -2.82 1.47 7.48 7.48 0 0 1 1-1.24c.35-.37.71-.7 1.05-1s.68-.65 1-1a1.91 1.91 0 0 0 .55-1.3z" fill="#d18e7c"/><g fill="#ff5050"><path d="m79.46 98.21h-8.53l4.26-6.18z"/><path d="m75.19 115.11-4.26-6.17h8.53z"/><path d="m73.65 94.74h3.09v15.07h-3.09z"/></g><path d="m129.34 84.25-2 .65a91.42 91.42 0 0 1 -20.86 2.47 62 62 0 0 1 -13.61-1.28c-10.68 5.91-27.32 5.91-27.32 5.91-37.93-1-33.83-22.65-29.92-29.2a12.46 12.46 0 0 1 .66-3.74c.13-.25 1-1.32 6.2-2.25l4.51-.81c1-.2 2.08-.38 3.14-.54h.09a67.52 67.52 0 0 1 9.77-.79 19.43 19.43 0 0 1 6.25.78c7.86-1.18 14.83-2.18 17.13-2.64 5.94-1.19 42.79-3.57 42.79-3.57l2-.14-.07-2-2.06.14c-1.51.09-37.05 2.39-43.05 3.6-1.67.33-6.09 1-11.21 1.75l-5.35.8a23 23 0 0 0 -6.43-.72 62.42 62.42 0 0 0 -6.65.4l-3.47.45h-.07c-1.06.16-2.15.34-3.19.54l-4.49.8c-5.83 1.05-7.14 2.38-7.61 3.3l-.07.12v.12a14.07 14.07 0 0 0 -.76 3.84c-1.94 3.58-4.21 11.47-.27 18.64 4.5 8.26 15.3 12.68 32.08 13.12.69 0 16.62-.07 27.63-5.83a68.87 68.87 0 0 0 13.32 1.17 93.66 93.66 0 0 0 21.32-2.52l1.59-.38v-1.64z" fill="#d18e7c"/></svg>