<svg viewBox="0 0 40 40" xmlns="http://www.w3.org/2000/svg" xmlns:xlink="http://www.w3.org/1999/xlink"><linearGradient id="a" gradientTransform="matrix(40 0 0 -40 4100.35 44831.54)" gradientUnits="userSpaceOnUse" x1="-102.4" x2="-101.51" y1="1120.49" y2="1120.03"><stop offset="0" stop-color="#06f"/><stop offset=".49" stop-color="#54d1ff"/><stop offset="1" stop-color="#0080ff"/></linearGradient><circle cx="20" cy="20" fill="url(#a)" r="20"/><circle cx="20" cy="20" fill="#fff" opacity=".6" r="8"/><circle cx="20" cy="20" fill="#006ccb" opacity=".8" r="4"/><path d="m19.71 9.76v-8.19a1 1 0 0 0 -1-1h-.07a19.22 19.22 0 0 0 -15.38 9.72 1 1 0 0 0 .36 1.32h.06l7.32 3.63a1 1 0 0 0 1.23-.35 9.12 9.12 0 0 1 6.6-4.18 1 1 0 0 0 .88-.95z" fill="#fff" opacity=".17"/><path d="m25.91 23.28v9.57a4 4 0 0 0 -2-.55 3.85 3.85 0 1 0 3.9 3.85v-11.39l10.31-2.4v7.58a3.84 3.84 0 1 0 1.88 3.29v-13.23z" fill="#373737"/><g fill="#fff"><ellipse cx="22.78" cy="35.08" opacity=".48" rx="1.5" ry="1"/><ellipse cx="35.46" cy="32.06" opacity=".48" rx="1.5" ry="1"/></g></svg>